<svg height="511pt" viewBox="0 0 511.99948 511" width="511pt" xmlns="http://www.w3.org/2000/svg"><path d="m492.304688 251.816406c32.011718-46.6875-4.210938-110.480468-60.921876-106.347656-5.21875.375-9.53125-3.8125-9.363281-9.050781 1.128907-38.957031-29.992187-70.246094-68.03125-70.246094-7.347656 0-14.417969 1.175781-21.035156 3.335937-4.035156 1.308594-8.429687-.414062-10.40625-4.167968-10.234375-19.453125-28.671875-33.921875-50.726563-38.804688-31.84375-7.105468-65.039062 6.941406-81.945312 35.59375-.964844 1.640625-1.882812 3.324219-2.722656 5.039063-2.015625 4.097656-6.839844 5.863281-11.058594 4.117187-2.078125-.851562-4.207031-1.609375-6.378906-2.265625-44.148438-13.207031-88.898438 20.492188-87.539063 67.398438.164063 5.238281-4.148437 9.425781-9.363281 9.050781-39.082031-2.847656-72.8125 28.277344-72.8125 67.894531 0 14.269531 4.386719 27.511719 11.890625 38.453125 2.046875 2.984375 2.046875 6.890625 0 9.882813-7.503906 10.933593-11.890625 24.175781-11.890625 38.445312 0 39.5 33.59375 70.753907 72.8125 67.894531 5.214844-.363281 9.527344 3.824219 9.363281 9.050782-1.359375 47.714844 44.804688 81.421875 89.066407 66.921875 4.03125-1.3125 8.425781.402343 10.402343 4.15625 28.738281 54.847656 107.9375 53.929687 135.394531-1.820313 2.019532-4.105468 6.839844-5.859375 11.058594-4.113281 7.984375 3.28125 16.722656 5.113281 25.890625 5.113281 37.953125 0 69.148438-31.203125 68.03125-70.257812-.167969-5.226563 4.144531-9.414063 9.363281-9.050782 39.164063 2.855469 72.808594-28.34375 72.808594-67.894531 0-14.269531-4.382812-27.511719-11.886718-38.445312-2.046876-2.992188-2.046876-6.898438 0-9.882813zm0 0" fill="#6990d7"/><path d="m492.304688 251.816406c32.011718-46.6875-4.210938-110.480468-60.921876-106.347656-5.21875.375-9.53125-3.8125-9.363281-9.050781 1.128907-38.957031-29.992187-70.246094-68.03125-70.246094-7.347656 0-14.417969 1.175781-21.035156 3.335937-4.035156 1.308594-8.429687-.414062-10.40625-4.167968-10.234375-19.453125-28.671875-33.921875-50.726563-38.804688-14.765624 7.722656-26.78125 20.304688-34.097656 35.730469-2.015625 4.261719-6.828125 6.089844-11.046875 4.28125-7.980469-3.417969-16.722656-5.320313-25.886719-5.320313-3.710937 0-7.359374.308594-10.914062.902344-.964844 1.640625-1.882812 3.324219-2.722656 5.039063-2.015625 4.097656-6.839844 5.863281-11.058594 4.117187-2.078125-.851562-4.207031-1.609375-6.378906-2.265625-21.972656 11.722657-37 35.5-37 62.9375 0 .757813.011718 1.519531.042968 2.265625.164063 5.4375-4.148437 9.789063-9.375 9.40625-1.570312-.113281-3.148437-.175781-4.75-.175781-37.589843 0-68.0625 31.664063-68.0625 70.730469 0 14.820312 4.398438 28.582031 11.902344 39.953125 2.046875 3.105469 2.046875 7.160156 0 10.265625-7.503906 11.371094-11.902344 25.128906-11.902344 39.949218 0 41.019532 33.460938 73.421876 72.8125 70.558594 5.226563-.386718 9.539063 3.96875 9.375 9.402344-.988281 23.640625 10.390626 47.746094 31.050782 61.660156 2.539062-.519531 5.019531-1.171875 7.433594-1.960937 4.03125-1.3125 8.425781.402343 10.402343 4.15625 1.359375 2.597656 2.878907 5.101562 4.542969 7.511719 11.492188 2.621093 23.863281 2.148437 35.636719-1.828126 4.03125-1.371093 8.425781.417969 10.402343 4.3125 6.203126 12.253907 15.402344 22.59375 26.605469 29.972657 25.628907-3.34375 47.222657-19.484375 58.207031-41.789063 2.019532-4.105468 6.839844-5.859375 11.058594-4.113281 7.984375 3.28125 16.722656 5.113281 25.890625 5.113281 37.953125 0 69.148438-31.203125 68.03125-70.257812-.167969-5.226563 4.144531-9.414063 9.363281-9.050782 39.164063 2.855469 72.808594-28.34375 72.808594-67.894531 0-14.269531-4.382812-27.511719-11.886718-38.445312-2.046876-2.992188-2.046876-6.898438 0-9.882813zm0 0" fill="#91aee2"/><g fill="#4172cc"><path d="m456.183594 119.074219 53.304687-49.242188c3.160157-2.921875 3.355469-7.851562.4375-11.015625-2.921875-3.160156-7.855469-3.355468-11.015625-.4375l-53.304687 49.242188c-3.164063 2.921875-3.359375 7.851562-.4375 11.015625 2.921875 3.160156 7.851562 3.359375 11.015625.4375zm0 0"/><path d="m162.066406 41.222656c1.339844 2.789063 4.125 4.417969 7.027344 4.417969 5.703125 0 9.515625-5.988281 7.015625-11.175781l-14.21875-29.546875c-1.867187-3.882813-6.527344-5.511719-10.402344-3.644531-3.878906 1.867187-5.511719 6.523437-3.640625 10.402343zm0 0"/><path d="m46.542969 117.234375c1.441406 2.507813 4.066406 3.910156 6.761719 3.910156 5.945312 0 9.75-6.46875 6.75-11.683593l-43.425782-75.503907c-2.148437-3.734375-6.914062-5.015625-10.644531-2.871093-3.730469 2.144531-5.015625 6.910156-2.871094 10.644531zm0 0"/><path d="m47.636719 387.035156-43.429688 45.960938c-4.722656 4.996094-1.097656 13.148437 5.664063 13.148437 2.066406 0 4.132812-.820312 5.667968-2.441406l43.425782-45.960937c2.957031-3.128907 2.816406-8.0625-.308594-11.019532-3.132812-2.957031-8.0625-2.816406-11.019531.3125zm0 0"/><path d="m509.601562 449.550781-53.304687-51.289062c-3.101563-2.984375-8.035156-2.886719-11.019531.210937-2.988282 3.105469-2.890625 8.039063.210937 11.023438 57.628907 55.449218 54.375 53.464844 58.707031 53.464844 6.96875 0 10.46875-8.539063 5.40625-13.410157zm0 0"/><path d="m340.230469 467.746094c-1.898438-3.863282-6.566407-5.460938-10.433594-3.566406-3.863281 1.894531-5.460937 6.5625-3.566406 10.429687l16.09375 32.828125c1.355469 2.761719 4.125 4.363281 7.003906 4.363281 5.738281 0 9.535156-6.042969 6.996094-11.226562zm0 0"/><path d="m112.957031 248.976562c5.621094-4.84375 8.847657-13.019531 8.847657-22.964843 0-24.253907-18.175782-27.0625-31.851563-27.0625h-23.101563c-4.253906 0-7.339843 2.792969-7.339843 6.640625v95.917968c0 3.785157 3.15625 6.640626 7.339843 6.640626h26.480469c19.996094 0 31.007813-11.410157 31.007813-32.132813v-2.535156c0-11.609375-3.644532-19.53125-11.382813-24.503907zm-38.054687-35.199218h14.769531c11.945313 0 16.601563 3.707031 16.601563 13.222656 0 11.113281-4.199219 15.050781-16.039063 15.050781h-15.332031zm33.90625 61.816406c0 12.09375-5.277344 17.726562-16.601563 17.726562h-17.304687v-37.003906h17.304687c11.636719 0 16.601563 5.046875 16.601563 16.882813zm0 0"/><path d="m151.503906 308.148438c3.359375 0 5.90625-1.789063 6.667969-4.675782l5.796875-19.410156h34.371094l5.84375 19.558594c.929687 2.792968 3.414062 4.527344 6.476562 4.527344 4.140625 0 8.753906-2.957032 8.753906-7.203126 0-.4375-.074218-.808593-.144531-1.085937v-.226563l-29.433593-96.085937-.019532-.070313c-1.089844-3.261718-4.460937-5.371093-8.59375-5.371093-4.175781 0-7.421875 2.078125-8.472656 5.441406l-29.390625 95.480469c-.324219.828125-.324219 1.613281-.324219 2.058594-.003906 4.226562 4.378906 7.0625 8.46875 7.0625zm29.707032-81.195313 12.863281 42.847656h-25.835938zm0 0"/><path d="m292.335938 205.449219v65l-32.148438-63.339844c-1.269531-2.441406-4.242188-8.15625-10.089844-8.15625-4.644531 0-7.765625 2.667969-7.765625 6.636719v95.777344c0 3.929687 3.265625 6.78125 7.765625 6.78125 4.425782 0 7.765625-2.914063 7.765625-6.78125v-65l33.25 64.707031c2.28125 4.5625 5.472657 7.074219 8.988281 7.074219 4.425782 0 7.765626-2.914063 7.765626-6.78125v-95.917969c0-3.824219-3.195313-6.496094-7.765626-6.496094-4.648437-.003906-7.765624 2.609375-7.765624 6.496094zm0 0"/><path d="m369.820312 213.777344c10.222657 0 15.75 4.648437 16.894532 14.207031.269531 3.867187 3.300781 6.359375 7.753906 6.359375 4.9375 0 7.765625-2.882812 7.765625-7.910156 0-16.179688-13.386719-27.484375-32.554687-27.484375-20.511719 0-32.273438 12.074219-32.273438 33.121093v43.664063c0 21.136719 11.8125 33.257813 32.414062 33.257813 20.601563 0 32.414063-12.121094 32.414063-33.257813v-21.128906c0-3.925781-2.730469-6.777344-6.496094-6.777344h-24.789062c-3.644531 0-6.5 3.101563-6.5 7.058594 0 4.109375 2.792969 7.203125 6.5 7.203125h15.753906v13.644531c0 12.402344-5.523437 18.433594-16.882813 18.433594-11.359374 0-16.882812-6.03125-16.882812-18.433594v-43.664063c0-12.308593 5.523438-18.292968 16.882812-18.292968zm0 0"/><path d="m443.035156 307.421875c5.125 0 9.453125-4.394531 9.453125-9.597656 0-5.371094-4.242187-9.738281-9.453125-9.738281-5.382812 0-9.597656 4.277343-9.597656 9.738281 0 5.292969 4.304688 9.597656 9.597656 9.597656zm0 0"/><path d="m442.964844 278.839844c4.304687 0 7.792968-3.488282 7.792968-7.792969v-64.78125c0-4.304687-3.488281-7.792969-7.792968-7.792969-4.304688 0-7.796875 3.488282-7.796875 7.792969v64.78125c0 4.304687 3.492187 7.792969 7.796875 7.792969zm0 0"/></g></svg>